<svg xmlns="http://www.w3.org/2000/svg" viewBox="80 0 390 355" role="img" aria-label="AT Studio mark">
<defs>
<linearGradient id="m" x1="0" y1="0" x2=".8" y2="1"><stop offset="0" stop-color="#fff"/><stop offset=".4" stop-color="#e2e8ed"/><stop offset="1" stop-color="#aebbc5"/></linearGradient>
<linearGradient id="n" x1="0" y1="0" x2="1" y2="1"><stop stop-color="#163f68"/><stop offset="1" stop-color="#020e18"/></linearGradient>
<linearGradient id="r" x1="0" y1="0" x2=".9" y2="1"><stop stop-color="#ff313d"/><stop offset=".5" stop-color="#ef111b"/><stop offset="1" stop-color="#a9000b"/></linearGradient>
<filter id="s" x="-20%" y="-20%" width="140%" height="150%"><feDropShadow dx="0" dy="7" stdDeviation="7" flood-color="#000814" flood-opacity=".55"/></filter>
</defs>
<g filter="url(#s)" stroke="#041627" stroke-width="10" stroke-linejoin="round">
<path d="M100 326 247 103h83l147 223h-91l-32-54H219l-31 54Zm153-118h69l-35-61Z" fill="url(#m)"/>
<path d="M113 326 247 119h40L167 326Z" fill="url(#n)" stroke-width="0"/>
<path d="m281 248 39 23-39 23Z" fill="url(#r)" stroke="#570008" stroke-width="5"/>
<path d="M112 183C138 88 201 28 294 17c-59 24-97 67-114 120Z" fill="url(#r)"/>
<path d="M137 204c16-92 78-150 177-158-61 22-99 66-113 114Z" fill="#ff242d"/>
<path d="M166 220c11-80 65-132 155-137-51 21-84 56-97 94Z" fill="#dc0713"/>
<path d="M192 232c11-65 58-109 131-113-45 20-73 47-84 73Z" fill="#ff3c43"/>
<path d="M225 92c24-48 93-62 130-26 19 18 25 42 24 69l-151 2c-4-18-4-31-3-45Z" fill="url(#r)"/>
<path d="M252 78c24-25 60-31 87-15" fill="none" stroke="#fff" stroke-width="7" stroke-linecap="round" opacity=".78"/>
<path d="M357 90v47h28l-8-53Z" fill="#f31a24"/>
<path d="M204 137c48-18 119-19 190 2 13 4 20 14 17 24-3 10-15 15-28 12-67-17-126-16-171 0-14 5-27 0-30-10-4-11 5-23 22-28Z" fill="url(#r)"/>
<path d="M206 165c55-36 124-32 174 4l-31 33c-25-12-43-8-58 11l81 67-52 39-114-94c-14-13-22-28-20-40 2-8 8-14 20-20Z" fill="url(#m)"/>
<path d="M222 227c23 7 47 23 75 50l45 43-35 26-83-74c-14-13-17-29-2-45Z" fill="url(#n)" stroke-width="0"/>
<path d="m351 201 113 31-100 28Z" fill="#173d60"/>
<circle cx="329" cy="184" r="17" fill="#04101a" stroke="#dbe6ef" stroke-width="4"/><circle cx="334" cy="179" r="6" fill="#fff"/>
</g></svg>