<svg xmlns="http://www.w3.org/2000/svg" viewBox="0 0 900 900" role="img" aria-labelledby="title desc"><title>Andrew Tharwat cinematic emblem</title><desc>Dark circular Andrew Tharwat emblem using the red safety helmet bird mark.</desc><defs><radialGradient id="bg" cx="50%" cy="42%" r="62%"><stop stop-color="#17364a"/><stop offset=".62" stop-color="#091b29"/><stop offset="1" stop-color="#040b11"/></radialGradient><linearGradient id="silver" x1="0" y1="0" x2="1" y2="1"><stop stop-color="#fff"/><stop offset=".52" stop-color="#c8d0d5"/><stop offset="1" stop-color="#687681"/></linearGradient><linearGradient id="red" x1="0" y1="0" x2="1" y2="1"><stop stop-color="#ff3140"/><stop offset="1" stop-color="#b6000c"/></linearGradient><filter id="glow"><feGaussianBlur stdDeviation="10" result="b"/><feMerge><feMergeNode in="b"/><feMergeNode in="SourceGraphic"/></feMerge></filter></defs><circle cx="450" cy="405" r="322" fill="url(#bg)" stroke="#657681" stroke-width="8"/><path d="M170 430a292 292 0 0 1 560-105" fill="none" stroke="#f39a47" stroke-width="6" opacity=".65" filter="url(#glow)"/><g transform="translate(240 135) scale(.72)"><path d="M92 475 264 168 362 168 515 475 420 475 315 274 201 475Z" fill="#172a39"/><path d="M260 177c46-59 101-82 177-66l-53 64c-31-8-52 2-72 27l87 84-65 40-116-109Z" fill="url(#silver)"/><path d="M395 220 512 260 407 300Z" fill="#aeb9c0"/><circle cx="382" cy="183" r="12" fill="#071724"/><path d="M169 167c48-99 127-139 241-122-59 6-102 28-133 67-37 1-72 18-108 55Z" fill="url(#red)"/><path d="M198 116c45-65 100-92 183-87-50 16-91 42-122 79-20 0-40 2-61 8Z" fill="#ef1525"/><path d="M244 72c44-38 89-55 142-49-36 13-68 31-97 55Z" fill="#ff5360"/><path d="M157 179c87-28 177-23 268 17l-18 33c-81-31-160-35-238-10Z" fill="#d90414"/><path d="m300 374 58 34-58 34Z" fill="#e10613"/></g><text x="450" y="650" fill="url(#silver)" font-family="Arial,Helvetica,sans-serif" font-size="88" font-weight="800" text-anchor="middle" letter-spacing="5">ANDREW</text><text x="450" y="715" fill="#f5f7f8" font-family="Arial,Helvetica,sans-serif" font-size="38" font-weight="600" text-anchor="middle" letter-spacing="18">THARWAT</text><text x="450" y="775" fill="#c4cfd5" font-family="Arial,Helvetica,sans-serif" font-size="18" text-anchor="middle" letter-spacing="7">SAFETY • CREATIVE SOLUTIONS • REAL IMPACT</text><line x1="365" y1="810" x2="535" y2="810" stroke="#e10613" stroke-width="6"/></svg>